<svg width="39" height="13" viewBox="0 0 39 13" fill="none" xmlns="http://www.w3.org/2000/svg">
<g clip-path="url(#clip0_0_1385)">
<path fill-rule="evenodd" clip-rule="evenodd" d="M7.00036 0.669434C6.98793 0.669434 6.97551 0.669434 6.96308 0.669434C5.29405 0.669434 3.68818 1.05954 2.132 1.84654C1.50042 3.35796 1.14425 4.89441 1.12561 6.46215C1.10077 8.01737 1.41914 9.61014 2.12527 11.2347C3.7503 11.9461 5.37533 12.3112 7.00036 12.3305C8.62538 12.3112 10.2504 11.9461 11.8749 11.2347C12.5816 9.61014 12.8999 8.01737 12.8751 6.46215C12.8565 4.89441 12.5003 3.35796 11.8687 1.84654C10.3125 1.05954 8.70666 0.669434 7.03763 0.669434C7.02521 0.669434 7.01278 0.669434 7.00036 0.669434Z" fill="#FEFEFE"/>
<path d="M1.86963 1.50072C3.50708 0.656876 5.20665 0.241211 6.96317 0.241211C6.9756 0.241211 6.98802 0.241211 7.00045 0.241211C7.01287 0.241211 7.0253 0.241211 7.03772 0.241211C8.79424 0.241211 10.4938 0.656876 12.1313 1.50072L12.2317 1.60764C12.9 3.19415 13.2816 4.81249 13.3002 6.45585C13.3002 6.48714 13.3002 6.51217 13.3002 6.54399V6.65716C13.294 8.23742 12.9565 9.84949 12.2317 11.4866L12.1188 11.5935C10.4131 12.3555 8.70675 12.7393 7.00045 12.7586C5.29414 12.7393 3.58784 12.3555 1.88205 11.5935L1.76919 11.4866C1.04443 9.84949 0.706896 8.23742 0.700684 6.65716V6.54399C0.700684 6.51217 0.700684 6.48714 0.700684 6.45585C0.71932 4.81249 1.10086 3.19415 1.76919 1.60764L1.86963 1.50072ZM7.00045 0.669393C6.98802 0.669393 6.9756 0.669393 6.96317 0.669393C5.29414 0.669393 3.68827 1.0595 2.1321 1.8465C1.50051 3.35792 1.14434 4.89437 1.12571 6.46211C1.10086 8.01733 1.41924 9.61011 2.12537 11.2347C3.75039 11.9461 5.37542 12.3111 7.00045 12.3304C8.62548 12.3111 10.2505 11.9461 11.875 11.2347C12.5817 9.61011 12.9 8.01733 12.8752 6.46211C12.8566 4.89437 12.5004 3.35792 11.8688 1.8465C10.3126 1.0595 8.70675 0.669393 7.03772 0.669393C7.0253 0.669393 7.01287 0.669393 7.00045 0.669393Z" fill="#003399"/>
<path fill-rule="evenodd" clip-rule="evenodd" d="M7.1123 9.9945C7.02481 8.79184 7.08123 7.53858 6.72506 6.39277C6.39374 5.32257 5.13731 4.71185 5.11246 3.53422C5.08761 2.61475 5.78132 1.55081 7.08124 1.55081C8.29988 1.54456 9.05622 2.43847 9.14371 3.43356C9.24984 4.58564 7.86243 5.36012 7.50005 6.45587C7.12472 7.57665 7.23136 8.81687 7.1123 9.9945Z" fill="#003399"/>
<path fill-rule="evenodd" clip-rule="evenodd" d="M7.59335 9.70461C7.54313 8.65945 7.54313 7.65862 7.83097 6.77044C8.14934 5.76335 8.81199 4.91324 9.82459 4.63631C10.5183 4.44751 11.5366 5.2658 11.3746 6.10339C11.2368 6.77722 10.568 7.57048 9.49327 7.65862C8.99318 7.70243 8.78093 8.10557 8.46824 8.3387C9.86807 8.19997 10.7745 7.6461 11.4056 7.06667C11.4993 7.55744 11.562 8.38251 11.1804 8.66571C10.4308 9.2008 9.7371 8.76636 8.85547 9.01826C8.36211 9.16325 8.05564 9.47826 7.59335 9.70461Z" fill="#003399"/>
<path fill-rule="evenodd" clip-rule="evenodd" d="M6.63869 9.70461C6.6946 8.65945 6.68838 7.65862 6.40728 6.77044C6.08838 5.76335 5.42626 4.91324 4.41366 4.63631C3.71995 4.44751 2.69493 5.2658 2.86369 6.10339C3.0014 6.77722 3.66974 7.57048 4.74498 7.65862C5.23885 7.70243 5.45732 8.10557 5.77 8.3387C4.36344 8.19997 3.4637 7.6461 2.83263 7.06667C2.73893 7.55744 2.67629 8.38251 3.05731 8.66571C3.80744 9.2008 4.50114 8.76636 5.38225 9.01826C5.87613 9.16325 6.17587 9.47826 6.63869 9.70461Z" fill="#003399"/>
<path fill-rule="evenodd" clip-rule="evenodd" d="M9.96919 11.26V11.0899L10.0945 11.0587L9.96919 10.8699V10.5548L10.5319 11.3418L10.3321 11.3924L10.1944 11.1969L9.96919 11.26ZM9.96919 10.5548V10.8699L9.8817 10.7436L9.84443 11.1218L9.96919 11.0899V11.26L9.82579 11.2918L9.80043 11.5244L9.6006 11.575L9.73209 10.5486L9.93192 10.498L9.96919 10.5548ZM8.10706 11.8081V11.6443H8.15055C8.2194 11.6381 8.26341 11.6318 8.28204 11.625C8.30689 11.6188 8.33174 11.6 8.34468 11.5812C8.36332 11.5562 8.36953 11.5306 8.36953 11.4994C8.36332 11.4681 8.35711 11.4425 8.33795 11.4237C8.32553 11.405 8.30068 11.3924 8.27583 11.3862C8.25098 11.3799 8.19455 11.3799 8.10706 11.3862V11.2224C8.15676 11.2224 8.18834 11.2162 8.20077 11.2162C8.23183 11.2099 8.25719 11.1906 8.27583 11.1718C8.29447 11.153 8.30068 11.128 8.29447 11.0962C8.29447 11.0649 8.28204 11.0399 8.26341 11.0268C8.25098 11.0081 8.22561 10.9955 8.18834 10.9955C8.17592 10.9955 8.15055 10.9955 8.10706 11.0018V10.838C8.17592 10.8318 8.22561 10.8318 8.25719 10.838C8.29447 10.838 8.33174 10.8511 8.36332 10.8699C8.39438 10.8824 8.41923 10.9074 8.4446 10.9387C8.46323 10.9705 8.47566 11.0081 8.48187 11.0524C8.48808 11.0962 8.47566 11.1405 8.45702 11.1781C8.43839 11.2162 8.40681 11.2474 8.36332 11.2725C8.42544 11.2855 8.47566 11.3106 8.50672 11.3481C8.54451 11.3862 8.56315 11.43 8.56936 11.4868C8.56936 11.5306 8.56315 11.575 8.55072 11.6188C8.53209 11.6631 8.50672 11.6944 8.47566 11.7262C8.43838 11.7513 8.40059 11.77 8.3509 11.7825C8.31932 11.7888 8.23804 11.7951 8.11949 11.8081H8.10706ZM9.28791 11.2787L9.48205 11.3043C9.46962 11.4112 9.43804 11.4994 9.38213 11.5625C9.32571 11.6188 9.24443 11.6631 9.14451 11.6819C9.01923 11.7007 8.90689 11.6756 8.81319 11.6063C8.71328 11.5306 8.65685 11.4237 8.62579 11.2725C8.60042 11.1155 8.61958 10.983 8.68791 10.8824C8.75055 10.7817 8.85047 10.7186 8.98196 10.6936C9.10051 10.6743 9.19421 10.6936 9.2817 10.7499C9.33192 10.7817 9.3754 10.8318 9.40698 10.9074L9.22579 10.983C9.20715 10.9387 9.17558 10.9011 9.1383 10.8824C9.0943 10.8573 9.05081 10.8511 9.0006 10.8573C8.93174 10.8699 8.88205 10.9074 8.84425 10.9643C8.80698 11.0268 8.80077 11.1092 8.81941 11.2224C8.84425 11.3418 8.88205 11.4237 8.93174 11.4681C8.98196 11.5119 9.0446 11.5306 9.11294 11.5181C9.16315 11.5056 9.20094 11.4806 9.232 11.4425C9.26306 11.405 9.2817 11.3481 9.28791 11.2787ZM8.10706 10.838V11.0018C8.08221 11.0018 8.05685 11.0081 8.02579 11.0081L7.91345 11.0211L7.93208 11.2412L8.06306 11.2287C8.07548 11.2287 8.09464 11.2287 8.10706 11.2224V11.3862C8.10706 11.3862 8.10706 11.3862 8.10085 11.3862L7.95072 11.3987L7.96936 11.6569L8.10706 11.6443V11.8081L7.79438 11.8394L7.70689 10.8761L8.08843 10.8448C8.09464 10.838 8.10085 10.838 8.10706 10.838ZM6.90085 11.4743V11.3106C6.94433 11.3106 6.9697 11.3043 6.98833 11.298C7.01318 11.2918 7.03182 11.2725 7.05098 11.2537C7.0634 11.2287 7.06961 11.2036 7.06961 11.1781C7.07582 11.1405 7.0634 11.1155 7.04425 11.0899C7.02561 11.0649 7.00076 11.0524 6.9697 11.0461C6.95054 11.0461 6.93191 11.0399 6.90085 11.0399V10.8761C6.99455 10.8761 7.05098 10.8824 7.08204 10.8949C7.13847 10.9074 7.18195 10.9387 7.21974 10.9893C7.25702 11.0399 7.27565 11.1025 7.26944 11.1781C7.26944 11.2349 7.25702 11.2855 7.23838 11.3293C7.21301 11.3669 7.18816 11.3987 7.1571 11.4237C7.11931 11.4425 7.08825 11.455 7.05098 11.4681C7.01318 11.4743 6.96349 11.4743 6.90085 11.4743ZM6.90085 10.8761V11.0399C6.88221 11.0399 6.85684 11.0399 6.82578 11.0399L6.73208 11.0336V11.3106H6.83199C6.85684 11.3106 6.88221 11.3106 6.90085 11.3106V11.4743C6.88842 11.4743 6.86927 11.4743 6.85063 11.4743H6.72587L6.71965 11.8394L6.52552 11.8331L6.54467 10.8699L6.85063 10.8761C6.86927 10.8761 6.88842 10.8761 6.90085 10.8761ZM5.09462 11.3799V11.0837C5.15105 11.0962 5.18833 11.0962 5.20696 11.0962C5.23233 11.0899 5.25097 11.0837 5.2696 11.0649C5.28203 11.0461 5.29445 11.0268 5.30067 10.9955C5.30688 10.9643 5.30067 10.9387 5.28824 10.9137C5.27582 10.8886 5.25097 10.8761 5.21939 10.8636C5.20696 10.8573 5.16348 10.8511 5.09462 10.838V10.6743L5.1759 10.6873C5.27582 10.7061 5.34467 10.7249 5.38816 10.7499C5.43216 10.7755 5.46322 10.813 5.48186 10.8636C5.50101 10.9074 5.50722 10.9643 5.4948 11.0211C5.48186 11.0899 5.4508 11.1468 5.4011 11.1843C5.35709 11.2224 5.28824 11.2412 5.20075 11.2412C5.23854 11.2725 5.2696 11.3043 5.28824 11.3356C5.31309 11.3737 5.33846 11.43 5.36952 11.5119L5.4508 11.72L5.2256 11.6756L5.12569 11.4425C5.11326 11.4237 5.10705 11.3987 5.09462 11.3799ZM5.64441 10.7817L5.83182 10.8005L5.78833 11.3231C5.78212 11.405 5.78212 11.4618 5.78212 11.4806C5.78833 11.5244 5.80697 11.5562 5.83182 11.5812C5.86339 11.6125 5.90067 11.625 5.9571 11.6318C6.01352 11.6381 6.05701 11.625 6.08186 11.6063C6.11344 11.5875 6.13208 11.5625 6.1445 11.5306C6.15071 11.4994 6.15692 11.4425 6.16314 11.3669L6.20714 10.8318L6.40076 10.8511L6.35727 11.3544C6.35106 11.4743 6.33812 11.5562 6.31948 11.6C6.30705 11.6443 6.28221 11.6881 6.25684 11.7132C6.22578 11.745 6.18229 11.77 6.13208 11.7825C6.08807 11.8018 6.02595 11.8018 5.95088 11.7951C5.85718 11.7888 5.78833 11.77 5.74433 11.745C5.70084 11.72 5.66305 11.6881 5.6382 11.6569C5.61335 11.6188 5.60093 11.5812 5.59471 11.5437C5.5885 11.4868 5.5885 11.405 5.59471 11.298L5.64441 10.7817ZM4.12603 11.0649L4.1633 10.9074L4.56969 11.0143L4.46977 11.3862C4.41956 11.4175 4.35692 11.4362 4.26943 11.4425C4.18815 11.4488 4.1136 11.4425 4.03854 11.4237C3.93811 11.3987 3.85735 11.3544 3.80092 11.298C3.73828 11.2349 3.701 11.1593 3.68237 11.0774C3.66942 10.9893 3.66942 10.9011 3.69479 10.813C3.71964 10.7186 3.76313 10.6367 3.82577 10.5674C3.88219 10.5048 3.95726 10.4667 4.04475 10.4479C4.1136 10.4292 4.19436 10.4354 4.28237 10.4604C4.39471 10.4917 4.4822 10.5361 4.5319 10.6054C4.58211 10.668 4.60696 10.7499 4.60075 10.838L4.40713 10.8255C4.40713 10.7755 4.39471 10.7311 4.36313 10.6936C4.33207 10.6618 4.29479 10.6305 4.23837 10.618C4.15709 10.5992 4.08824 10.6054 4.02559 10.643C3.96347 10.6811 3.91947 10.7562 3.88841 10.8573C3.85735 10.9705 3.86356 11.0587 3.89462 11.128C3.93189 11.1969 3.98832 11.2412 4.06339 11.26C4.10687 11.2725 4.14466 11.2725 4.18815 11.2725C4.23215 11.2662 4.26943 11.2537 4.30722 11.2412L4.33828 11.1218L4.12603 11.0649ZM5.09462 10.6743L4.76952 10.618L4.60696 11.5687L4.79436 11.6L4.86322 11.2036L4.90722 11.2099C4.95071 11.2162 4.98229 11.2287 5.00092 11.2349C5.01956 11.2474 5.03198 11.2662 5.05062 11.2855C5.05683 11.3043 5.07599 11.3356 5.09462 11.3799V11.0837C5.07599 11.0837 5.05683 11.0774 5.03198 11.0774L4.8948 11.0524L4.93207 10.813L5.0822 10.838C5.08841 10.838 5.09462 10.838 5.09462 10.838V10.6743Z" fill="#003399"/>
<path fill-rule="evenodd" clip-rule="evenodd" d="M34.8812 9.49708V7.72125H35.6561V4.59828L34.8812 6.15976V2.26232H37.9247L38.6996 11.2411H35.6561V9.49708H34.8812ZM34.8812 2.26232V6.15976L34.1062 7.72125H34.8812V9.49708H33.4187L32.8187 11.1467H30.9312V9.09393L33.0371 4.5164H32.6059L33.8059 2.26232H34.8812ZM30.9312 5.25333L31.8749 2.99925L30.9312 2.47041V5.25333ZM23.4252 4.39071C23.4692 4.13255 23.4692 3.88065 23.4252 3.64126V4.39071ZM30.9312 2.47041V5.25333L30.8064 5.5553C28.9438 4.21443 26.1938 5.43587 26.0375 6.85237C25.8816 8.33197 27.0004 9.52837 29.8565 8.63446L28.8749 11.2787C25.1067 11.7006 23.6442 10.1959 23.4252 8.4394V7.44431C23.4816 6.98484 23.6002 6.53788 23.7627 6.12221C25.6192 1.47532 28.6311 2.52048 29.7752 2.43234L29.9439 1.91602L30.9312 2.47041ZM30.9312 9.09393L29.9874 11.1467H30.9312V9.09393ZM20.038 11.0899C22.0564 10.6872 24.0376 8.24383 22.0502 6.29849C22.8252 5.88283 23.3066 5.1339 23.4252 4.39071V3.64126C23.288 2.86678 22.6942 2.23728 21.5755 2.21851L20.038 2.18669V3.91194H20.6752C21.3565 3.91194 21.269 5.68777 20.419 5.68777H20.038V7.04794C20.9569 7.22422 20.6317 8.50825 20.038 8.90514V11.0899ZM23.4252 7.44431V8.4394C23.3879 8.11188 23.3879 7.77809 23.4252 7.44431ZM17.3755 2.13037L16.132 4.56073L16.688 4.5164L15.1882 11.1467H19.482C19.6694 11.1467 19.8505 11.1279 20.038 11.0899V8.90514C19.9318 8.98076 19.8128 9.02457 19.6942 9.02457H18.1505L18.663 7.02865H19.819C19.9002 7.02865 19.9753 7.0349 20.038 7.04794V5.68777H18.9627L19.3939 3.91194H20.038V2.18669L17.3755 2.13037Z" fill="#003399"/>
</g>
<defs>
<clipPath id="clip0_0_1385">
<rect width="38" height="12.5174" fill="white" transform="translate(0.699951 0.241211)"/>
</clipPath>
</defs>
</svg>
