<svg width="24" height="25" viewBox="0 0 24 25" fill="none" xmlns="http://www.w3.org/2000/svg">
<path fill-rule="evenodd" clip-rule="evenodd" d="M16.4522 3.23508V4.26997C19.4609 4.56186 21 6.22477 21 9.21446V17.4848C21 20.8106 19.1043 22.5 15.3739 22.5H8.62609C4.89565 22.5 3 20.8106 3 17.4848V9.21446C3 7.22428 3.67826 5.80019 5.06957 4.96874C5.28888 4.81904 5.57263 4.80859 5.80202 4.94176C6.0314 5.07494 6.16687 5.32876 6.15169 5.59698C6.13652 5.8652 5.97333 6.10155 5.73043 6.20708C4.8087 6.75548 4.37391 7.71077 4.37391 9.21446V9.47981H17.0609C17.4403 9.47981 17.7478 9.79266 17.7478 10.1786C17.7478 10.5645 17.4403 10.8774 17.0609 10.8774H4.37391V17.4848C4.37391 20.0233 5.6087 21.0759 8.62609 21.0936H15.3739C18.3478 21.0936 19.6174 20.0145 19.6174 17.4759V9.20561C19.6174 6.9943 18.6522 5.92403 16.4522 5.66752V6.33975C16.4014 6.69806 16.093 6.95964 15.7374 6.94599C15.3818 6.93234 15.0936 6.64786 15.0696 6.28668V3.17316C15.0763 2.98618 15.1565 2.80977 15.2921 2.68341C15.4278 2.55706 15.6076 2.49132 15.7913 2.50092C16.17 2.52461 16.4623 2.84923 16.4522 3.23508ZM8.70877 6.79279C8.57806 6.92409 8.40109 6.99667 8.21739 6.9943C7.8414 6.98465 7.54295 6.66923 7.54783 6.28668V3.23508C7.58736 2.87709 7.88498 2.60645 8.23913 2.60645C8.59328 2.60645 8.8909 2.87709 8.93043 3.23508V4.19921H12.8609C13.2403 4.19921 13.5478 4.51206 13.5478 4.89798C13.5478 5.2839 13.2403 5.59675 12.8609 5.59675H8.91304V6.29553C8.91306 6.4824 8.83949 6.66149 8.70877 6.79279ZM16.1913 13.1152C15.7111 13.1152 15.3217 13.5112 15.3217 13.9997C15.3217 14.4882 15.7111 14.8843 16.1913 14.8843C16.6716 14.8843 17.0609 14.4882 17.0609 13.9997C17.0609 13.7636 16.9681 13.5373 16.8031 13.3711C16.6382 13.205 16.4147 13.1128 16.1826 13.1152H16.1913ZM11.1478 13.9997C11.1478 13.5112 11.5371 13.1152 12.0174 13.1152C12.4976 13.1152 12.887 13.5112 12.887 13.9997C12.887 14.4882 12.4976 14.8843 12.0174 14.8843C11.5371 14.8843 11.1478 14.4882 11.1478 13.9997ZM7.85217 13.1152C7.37193 13.1152 6.98261 13.5112 6.98261 13.9997C6.98261 14.4882 7.37193 14.8843 7.85217 14.8843C8.33242 14.8843 8.72174 14.4882 8.72174 13.9997C8.72175 13.7636 8.62894 13.5373 8.46398 13.3711C8.29902 13.205 8.0756 13.1128 7.84348 13.1152H7.85217ZM15.3217 17.582C15.3217 17.0935 15.7111 16.6975 16.1913 16.6975H16.1826C16.4147 16.6952 16.6382 16.7873 16.8031 16.9534C16.9681 17.1196 17.0609 17.3459 17.0609 17.582C17.0609 18.0706 16.6716 18.4666 16.1913 18.4666C15.7111 18.4666 15.3217 18.0706 15.3217 17.582ZM12.0174 16.6975C11.5371 16.6975 11.1478 17.0935 11.1478 17.582C11.1478 18.0706 11.5371 18.4666 12.0174 18.4666C12.4976 18.4666 12.887 18.0706 12.887 17.582C12.887 17.0935 12.4976 16.6975 12.0174 16.6975ZM6.98261 17.582C6.98261 17.0935 7.37193 16.6975 7.85217 16.6975H7.84348C8.0756 16.6952 8.29902 16.7873 8.46398 16.9534C8.62894 17.1196 8.72175 17.3459 8.72174 17.582C8.72174 18.0706 8.33242 18.4666 7.85217 18.4666C7.37193 18.4666 6.98261 18.0706 6.98261 17.582Z" fill="#130F26"/>
</svg>
