<svg width="39" height="13" viewBox="0 0 39 13" fill="none" xmlns="http://www.w3.org/2000/svg">
<g clip-path="url(#clip0_0_1394)">
<path d="M20.9488 11.0733C20.9096 11.8099 20.5818 12.3139 19.9534 12.6197C19.7707 12.7081 19.6005 12.638 19.5175 12.4509C19.4533 12.306 19.5269 12.1419 19.6986 12.065C20.1439 11.8664 20.3391 11.4591 20.3307 11.0754C20.3203 10.6085 20.0416 10.2525 19.6026 10.0994C19.1798 9.95245 18.7382 10.0952 18.426 10.4805C18.1865 10.7764 18.1661 11.2877 18.3765 11.6301C18.4929 11.8204 18.6468 11.9636 18.8494 12.0593C19.0404 12.1492 19.1078 12.3155 19.0305 12.4801C18.9517 12.6479 18.7648 12.7018 18.5774 12.6066C18.0742 12.3526 17.7443 11.9573 17.6436 11.3964C17.4844 10.5097 18.0372 9.71458 18.8337 9.49396C19.7754 9.23309 20.6794 9.82907 20.8903 10.6912C20.9232 10.8271 20.9331 10.9693 20.9488 11.0733Z" fill="#00AA11"/>
<path d="M23.3526 10.1728C23.3579 10.1023 23.3615 10.0463 23.3662 9.98201C23.5291 9.98201 23.6857 9.98201 23.8522 9.98201C23.8558 10.0176 23.8626 10.0515 23.8626 10.0855C23.8631 10.6606 23.8657 11.2362 23.8616 11.8118C23.8584 12.1667 23.7217 12.459 23.4048 12.6378C23.0081 12.8626 22.3891 12.792 22.0346 12.4935C22.0012 12.4653 21.9694 12.4355 21.9302 12.4004C22.0357 12.2964 22.139 12.1945 22.2528 12.0826C22.4298 12.2248 22.6281 12.2964 22.8599 12.2896C23.2174 12.2786 23.3939 12.0826 23.3474 11.7009C23.0478 11.9357 22.7179 11.9446 22.3823 11.8322C22.1824 11.7652 22.0247 11.6314 21.9125 11.4443C21.676 11.0495 21.7371 10.5487 22.0644 10.2429C22.4152 9.9151 22.9455 9.88164 23.3526 10.1728ZM23.3323 10.9377C23.3323 10.6041 23.1517 10.4222 22.8228 10.4253C22.5133 10.428 22.305 10.6313 22.2935 10.9136C22.2789 11.2822 22.518 11.4479 22.8343 11.4437C23.1595 11.439 23.3323 11.267 23.3323 10.9377Z" fill="black"/>
<path d="M31.5963 9.97645C31.2967 10.2593 31.0237 10.5175 30.7466 10.7795C31.0284 11.1548 31.304 11.5218 31.5984 11.9139C31.397 11.9139 31.2304 11.9191 31.0645 11.9102C31.0258 11.9082 30.9799 11.8669 30.9538 11.8318C30.8003 11.6269 30.6526 11.4178 30.5023 11.2108C30.4772 11.1757 30.4501 11.1423 30.4052 11.0827C30.2971 11.2066 30.1593 11.3038 30.1124 11.4345C30.0633 11.571 30.1014 11.7388 30.1014 11.9144C30.0116 11.9144 29.9339 11.9144 29.8561 11.9144C29.782 11.9144 29.7073 11.9144 29.6212 11.9144C29.6175 11.8564 29.6128 11.8099 29.6128 11.7628C29.6123 11.0372 29.616 10.311 29.6087 9.58489C29.6076 9.4453 29.6504 9.40505 29.782 9.41916C29.8817 9.43014 29.9829 9.42125 30.0998 9.42125C30.0998 9.86249 30.0998 10.288 30.0998 10.7497C30.2517 10.6122 30.3786 10.4998 30.5028 10.3848C30.6296 10.2682 30.7528 10.1479 30.8802 10.0324C30.9079 10.0073 30.946 9.97959 30.9804 9.97854C31.1725 9.97384 31.3651 9.97645 31.5963 9.97645Z" fill="black"/>
<path d="M27.8456 11.11C27.8759 11.3149 28.0716 11.4718 28.2971 11.4895C28.4876 11.5047 28.6662 11.477 28.8217 11.3531C28.8468 11.3332 28.9 11.3175 28.9214 11.3306C29.0258 11.3949 29.1234 11.4691 29.233 11.5465C28.8953 11.8837 28.5106 11.9762 28.069 11.867C27.7094 11.7781 27.4489 11.5758 27.3644 11.2067C27.1811 10.4032 27.7992 9.87202 28.5132 9.9933C28.9277 10.0634 29.1855 10.307 29.2826 10.7127C29.3119 10.8339 29.3035 10.9641 29.3134 11.11C29.054 11.11 28.8123 11.11 28.5706 11.11C28.3326 11.11 28.0941 11.11 27.8456 11.11ZM28.8045 10.7398C28.7711 10.4988 28.5795 10.3838 28.2575 10.399C28.0267 10.4094 27.8701 10.5412 27.8587 10.7398C28.1719 10.7398 28.484 10.7398 28.8045 10.7398Z" fill="black"/>
<path d="M25.1801 9.94873C25.7512 9.97173 26.1756 10.3278 26.2184 10.8824C26.2471 11.2609 26.0811 11.5647 25.7491 11.7686C25.3686 12.0022 24.7652 11.9395 24.4431 11.6279C23.9598 11.16 24.1075 10.3351 24.7265 10.0763C24.8701 10.0162 25.0282 9.99055 25.1801 9.94873ZM25.6995 10.9462C25.6985 10.6315 25.498 10.4234 25.1948 10.4255C24.8544 10.4281 24.6764 10.6477 24.665 10.9473C24.654 11.2353 24.9004 11.4664 25.189 11.4643C25.4975 11.4617 25.7006 11.2557 25.6995 10.9462Z" fill="black"/>
<path d="M26.5179 9.97754C26.6927 9.97754 26.8467 9.97754 27.0221 9.97754C27.0221 10.0209 27.0221 10.0628 27.0221 10.1046C27.0221 10.8046 27.0221 11.5046 27.0216 12.2046C27.0216 12.5575 26.8159 12.763 26.4631 12.764C26.3273 12.7645 26.1911 12.7645 26.0408 12.7645C26.0408 12.6814 26.0408 12.6119 26.0408 12.5423C26.0408 12.4723 26.0408 12.4017 26.0408 12.3071C26.1316 12.3071 26.2141 12.3102 26.296 12.306C26.4824 12.2972 26.5179 12.259 26.5179 12.075C26.5179 11.4283 26.5179 10.7816 26.5179 10.1349C26.5179 10.0868 26.5179 10.0392 26.5179 9.97754Z" fill="black"/>
<path d="M18.6642 11.0803C18.6261 10.7969 18.9847 10.4561 19.289 10.4759C19.6262 10.4984 19.9049 10.7614 19.9028 11.0986C19.9007 11.4342 19.6095 11.7306 19.2744 11.7217C18.9387 11.7128 18.6443 11.4467 18.6642 11.0803Z" fill="#00AA11"/>
<path d="M7.00073 10.2124H7.52114C7.80458 10.2124 7.97213 10.3724 7.97213 10.6291C7.97213 10.8899 7.80667 11.0426 7.52114 11.0426H7.15889V11.5638H7.00073V10.2124ZM7.51175 10.892C7.71793 10.892 7.81241 10.8089 7.81241 10.6291C7.81241 10.4497 7.71375 10.363 7.51175 10.363H7.15889V10.892H7.51175Z" fill="black"/>
<path d="M8.53146 10.5112C8.82063 10.5112 9.01376 10.7292 9.01376 11.0518C9.01376 11.3744 8.82063 11.5924 8.53146 11.5924C8.24437 11.5924 8.05176 11.3744 8.05176 11.0518C8.05176 10.7292 8.24437 10.5112 8.53146 10.5112ZM8.53146 10.6524C8.32945 10.6524 8.20209 10.8066 8.20209 11.0518C8.20209 11.297 8.32945 11.4512 8.53146 11.4512C8.73398 11.4512 8.86343 11.297 8.86343 11.0518C8.86343 10.8066 8.73398 10.6524 8.53146 10.6524Z" fill="black"/>
<path d="M9.11108 10.54H9.25933L9.44411 11.3357H9.44828L9.7218 10.54H9.85856L10.1326 11.3357H10.1362L10.3216 10.54H10.4698L10.225 11.5637H10.0825L9.79331 10.7277H9.78913L9.49839 11.5637H9.35537L9.11108 10.54Z" fill="black"/>
<path d="M11.0398 10.5112C11.3138 10.5112 11.4965 10.7177 11.4965 11.0189V11.0962H10.7198C10.724 11.2933 10.8492 11.4554 11.0361 11.4554C11.1807 11.4554 11.2616 11.4031 11.3483 11.2505L11.4735 11.3257C11.3869 11.5014 11.2386 11.5924 11.0398 11.5924C10.7563 11.5924 10.5674 11.3744 10.5674 11.0518C10.5674 10.7292 10.7626 10.5112 11.0398 10.5112ZM11.3446 10.9744C11.3425 10.8798 11.3117 10.8029 11.2559 10.7407C11.2 10.679 11.1285 10.6482 11.0398 10.6482C10.8665 10.6482 10.7276 10.8029 10.724 10.9744H11.3446Z" fill="black"/>
<path d="M11.7114 10.5402H11.8539V10.6254H11.8576C11.8962 10.5616 11.9714 10.5229 12.0695 10.5229C12.1003 10.5229 12.1353 10.5287 12.1718 10.5386L12.1389 10.6949C12.1024 10.6834 12.0679 10.6777 12.0387 10.6777C11.9176 10.6777 11.8612 10.7587 11.8612 10.9495V11.5638H11.7114V10.5402Z" fill="black"/>
<path d="M12.7134 10.5112C12.9869 10.5112 13.1701 10.7177 13.1701 11.0189V11.0962H12.3934C12.397 11.2933 12.5223 11.4554 12.7092 11.4554C12.8538 11.4554 12.9352 11.4031 13.0218 11.2505L13.1471 11.3257C13.0605 11.5014 12.9117 11.5924 12.7134 11.5924C12.4299 11.5924 12.241 11.3744 12.241 11.0518C12.241 10.7292 12.4357 10.5112 12.7134 10.5112ZM13.0177 10.9744C13.0161 10.8798 12.9853 10.8029 12.9295 10.7407C12.8731 10.679 12.8021 10.6482 12.7134 10.6482C12.5401 10.6482 12.4012 10.8029 12.397 10.9744H13.0177Z" fill="black"/>
<path d="M13.8038 10.5114C13.9275 10.5114 14.0371 10.5636 14.1044 10.6483H14.1086V10.1543H14.2589V11.5637H14.1144V11.4613H14.1102C14.0429 11.5444 13.9291 11.5925 13.8038 11.5925C13.5381 11.5925 13.345 11.3703 13.345 11.0519C13.345 10.7335 13.5381 10.5114 13.8038 10.5114ZM14.1086 10.9516C14.1086 10.7853 13.9734 10.6525 13.8038 10.6525C13.6206 10.6525 13.4953 10.8104 13.4953 11.0519C13.4953 11.2935 13.6206 11.4513 13.8137 11.4513C13.9755 11.4513 14.1086 11.3165 14.1086 11.1502V10.9516Z" fill="black"/>
<path d="M15.1787 11.4613V11.5637H15.0347V10.1543H15.1845V10.6483H15.1887C15.256 10.5636 15.3661 10.5114 15.4893 10.5114C15.7555 10.5114 15.9481 10.7335 15.9481 11.0519C15.9481 11.3703 15.7555 11.5925 15.4893 11.5925C15.364 11.5925 15.2502 11.5444 15.1829 11.4613H15.1787ZM15.4893 10.6525C15.3197 10.6525 15.1845 10.7853 15.1845 10.9516V11.1502C15.1845 11.3165 15.3176 11.4513 15.4794 11.4513C15.6725 11.4513 15.7978 11.2935 15.7978 11.0519C15.7978 10.8104 15.6725 10.6525 15.4893 10.6525Z" fill="black"/>
<path d="M16.3911 11.4764L15.998 10.54H16.1583L16.4683 11.3028H16.472L16.7847 10.54H16.9444L16.3316 11.9976H16.1755L16.3911 11.4764Z" fill="black"/>
<path d="M4.44612 0.22998C6.73552 0.22998 8.59167 2.02419 8.59167 4.23716C8.59167 6.45013 6.73552 8.24434 4.44612 8.24434C2.1562 8.24434 0.300049 6.45013 0.300049 4.23716C0.300049 2.02419 2.1562 0.22998 4.44612 0.22998Z" fill="#00AED6"/>
<path fill-rule="evenodd" clip-rule="evenodd" d="M6.86431 4.11365C6.83247 3.60341 6.38356 3.21236 5.85532 3.23536H3.23656C3.14103 3.23536 3.06378 3.1606 3.06378 3.06807C3.06378 2.97606 3.14103 2.9013 3.23656 2.9013H5.88977C5.87464 2.55574 5.63035 2.25879 5.28532 2.16678C4.51175 2.03295 3.71991 2.03295 2.94634 2.16678C2.50683 2.27134 2.17799 2.62475 2.11744 3.05814C1.99634 3.84441 1.99634 4.64323 2.11744 5.42899C2.20983 5.88799 2.58669 6.24297 3.06378 6.32086C4.02266 6.43745 4.99301 6.43745 5.95189 6.32086C6.37939 6.23722 6.70249 5.89793 6.75365 5.47917C6.84134 5.02905 6.8784 4.57109 6.86431 4.11365ZM6.00043 4.6746V4.82151C6.00043 4.91352 5.92318 4.98827 5.82766 4.98827C5.73214 4.98827 5.65488 4.91352 5.65488 4.82151V4.6746C5.59903 4.62755 5.56771 4.55906 5.56876 4.48744C5.56876 4.3489 5.68464 4.23703 5.82766 4.23703C5.97068 4.23703 6.08656 4.3489 6.08656 4.48744C6.08604 4.55854 6.05472 4.6265 6.00043 4.6746Z" fill="white"/>
<path d="M20.4002 3.78674C20.4059 3.08411 19.8213 2.51009 19.0942 2.50434C18.3671 2.49911 17.7736 3.06372 17.7678 3.76635C17.7621 4.46898 18.3467 5.04352 19.0738 5.04875C19.0806 5.04875 19.0874 5.04875 19.0942 5.04875C19.7837 5.08482 20.373 4.57301 20.4101 3.90646C20.4122 3.86672 20.4122 3.82647 20.4106 3.78674H20.4002ZM16.4895 3.78674C16.4895 2.45101 17.581 1.43262 19.0942 1.43262C20.6074 1.43262 21.6994 2.45728 21.6994 3.78674C21.6994 5.11567 20.6178 6.14399 19.0942 6.14399C17.5705 6.14399 16.4895 5.1188 16.4895 3.78674Z" fill="black"/>
<path d="M14.417 4.02987C14.417 4.58089 13.8365 5.03153 13.1011 5.03153C12.4251 5.09793 11.8217 4.62167 11.7533 3.96818C11.7465 3.90231 11.7455 3.83591 11.7502 3.76952C11.7502 3.04128 12.303 2.54044 13.1527 2.54044C13.8438 2.54044 14.417 2.99788 14.417 3.51544V4.02987ZM14.4686 1.42847V1.95597C14.0484 1.58688 13.4915 1.39815 12.9246 1.43213C11.5842 1.44363 10.5079 2.50385 10.5199 3.79932C10.5324 5.09479 11.6291 6.13566 12.9695 6.12364C13.5213 6.14769 14.0584 5.94798 14.4514 5.57262V6.02326C14.4514 6.63441 13.9059 7.08191 13.1872 7.08191C12.6386 7.12008 12.0978 6.93658 11.6948 6.57428L10.855 7.35585C11.4845 7.95288 12.34 8.27387 13.2216 8.24407C14.6936 8.24407 15.7021 7.28894 15.7021 6.01699V1.42847H14.4686Z" fill="black"/>
<path d="M22.46 1.56554H23.6965V1.95972H23.7138C24.1193 1.60213 24.6549 1.41498 25.203 1.4385C26.5491 1.48764 27.5994 2.58236 27.5487 3.88306C27.5007 5.1158 26.4782 6.10387 25.203 6.1504C24.6794 6.1619 24.1684 5.99566 23.7586 5.67937V7.91011H22.4704L22.46 1.56554ZM25.0025 2.54054C24.3114 2.54054 23.7487 3.00478 23.7487 3.50927V4.07336C23.7487 4.61079 24.3046 5.05516 25.0093 5.05516C25.7281 5.09071 26.3403 4.55694 26.3774 3.86267C26.4145 3.16841 25.8622 2.57661 25.1435 2.54054C25.0991 2.53845 25.0542 2.53845 25.0093 2.54054H25.0025Z" fill="black"/>
<path d="M30.0224 3.35575C30.869 3.24544 31.1211 3.12834 31.1211 2.90145C31.1211 2.60764 30.8001 2.43041 30.3022 2.43041C29.7661 2.38807 29.278 2.72997 29.1517 3.23551L27.936 2.99137C28.1088 2.08328 29.076 1.43555 30.2677 1.43555C31.6155 1.43555 32.4511 2.10315 32.4511 3.18532V6.02041H31.2939V5.52637H31.2767C30.8842 5.95349 30.3084 6.18038 29.7186 6.14065C28.6992 6.14065 27.9908 5.6027 27.9908 4.80492C27.9908 4.00662 28.5713 3.54918 30.0224 3.35575ZM31.225 3.82626H31.2078C31.0935 3.98676 30.8622 4.08034 30.2228 4.18699C29.4665 4.32396 29.1867 4.46772 29.1867 4.72807C29.1867 4.98842 29.4111 5.11546 29.8982 5.11546C30.6409 5.11546 31.2146 4.7814 31.2146 4.35742L31.225 3.82626Z" fill="black"/>
<path d="M34.7829 5.7697L32.6511 1.56543H34.0714L35.4703 4.47736H35.4912L36.8729 1.56543H38.3L35.1076 7.91H33.6878L34.7829 5.7697Z" fill="black"/>
</g>
<defs>
<clipPath id="clip0_0_1394">
<rect width="38" height="12.5469" fill="white" transform="translate(0.300049 0.226562)"/>
</clipPath>
</defs>
</svg>
