<svg width="48" height="48" viewBox="0 0 48 48" fill="none" xmlns="http://www.w3.org/2000/svg">
<path d="M2 24C2 8 8 2 24 2C40 2 46 8 46 24C46 40 40 46 24 46C8 46 2 40 2 24Z" fill="#0B0909"/>
<path fill-rule="evenodd" clip-rule="evenodd" d="M32.5403 32.96H18.0003C17.0949 32.9495 16.2302 32.5824 15.5937 31.9384C14.9572 31.2944 14.6002 30.4255 14.6003 29.52V21.62L12.1603 17.44C12.0587 17.264 12.0051 17.0644 12.0049 16.8612C12.0047 16.6579 12.0579 16.4582 12.1591 16.282C12.2604 16.1058 12.4062 15.9593 12.5819 15.8571C12.7576 15.755 12.9571 15.7008 13.1603 15.7H32.5403C32.9954 15.6974 33.4465 15.785 33.8675 15.958C34.2885 16.1309 34.671 16.3857 34.9928 16.7075C35.3146 17.0293 35.5694 17.4118 35.7423 17.8328C35.9153 18.2538 36.003 18.7049 36.0003 19.16V29.52C36.0003 29.9734 35.9107 30.4224 35.7365 30.8411C35.5624 31.2597 35.3072 31.6399 34.9857 31.9596C34.6641 32.2793 34.2825 32.5322 33.8629 32.7039C33.4432 32.8756 32.9937 32.9626 32.5403 32.96Z" fill="#A15808"/>
<path fill-rule="evenodd" clip-rule="evenodd" d="M32.5396 32.2999H17.9996C17.0908 32.2894 16.223 31.9196 15.586 31.2713C14.9489 30.623 14.5943 29.7489 14.5996 28.8399V20.9399L12.1596 16.7599C12.0565 16.5855 12.0017 16.3866 12.001 16.1839C12.0002 15.9813 12.0536 15.782 12.1554 15.6068C12.2573 15.4316 12.4041 15.2867 12.5806 15.187C12.7571 15.0874 12.957 15.0366 13.1596 15.0399H32.5396C32.9931 15.0373 33.4425 15.1243 33.8622 15.296C34.2819 15.4677 34.6635 15.7207 34.985 16.0404C35.3066 16.3601 35.5618 16.7402 35.7359 17.1589C35.91 17.5776 35.9996 18.0265 35.9996 18.4799V28.8399C36.0023 29.2951 35.9146 29.7462 35.7417 30.1672C35.5687 30.5882 35.314 30.9706 34.9921 31.2925C34.6703 31.6143 34.2878 31.869 33.8669 32.042C33.4459 32.2149 32.9948 32.3026 32.5396 32.2999Z" fill="white"/>
<path d="M32.1201 18.8201H18.5001C17.992 18.8201 17.5801 19.232 17.5801 19.7401C17.5801 20.2482 17.992 20.6601 18.5001 20.6601H32.1201C32.6282 20.6601 33.0401 20.2482 33.0401 19.7401C33.0401 19.232 32.6282 18.8201 32.1201 18.8201Z" fill="#FF8906"/>
<path d="M32.1201 22.48H18.5001C17.992 22.48 17.5801 22.8919 17.5801 23.4C17.5801 23.9081 17.992 24.32 18.5001 24.32H32.1201C32.6282 24.32 33.0401 23.9081 33.0401 23.4C33.0401 22.8919 32.6282 22.48 32.1201 22.48Z" fill="#FF8906"/>
<path d="M28.4201 26.22H18.5001C17.992 26.22 17.5801 26.6319 17.5801 27.14C17.5801 27.6481 17.992 28.06 18.5001 28.06H28.4201C28.9282 28.06 29.3401 27.6481 29.3401 27.14C29.3401 26.6319 28.9282 26.22 28.4201 26.22Z" fill="#FF8906"/>
</svg>
