<svg width="39" height="13" viewBox="0 0 39 13" fill="none" xmlns="http://www.w3.org/2000/svg">
<path fill-rule="evenodd" clip-rule="evenodd" d="M13.781 0.646533H18.6678L18.671 2.59497L17.4678 2.59177L20.3213 9.32332L23.1266 2.59817H21.8913L21.8881 0.652933L25.8032 0.649735L25.7968 1.75993L21.087 12.6955C19.9514 12.6987 19.2114 12.2892 18.8157 11.4317L14.9392 2.59817H13.7778L13.781 0.646533ZM7.05415 0.304199C10.4546 0.304199 13.2116 3.06528 13.2116 6.46945C13.2116 9.87361 10.4546 12.6315 7.05415 12.6315C3.65693 12.6315 0.899902 9.87361 0.899902 6.46945C0.899902 3.06528 3.65693 0.304199 7.05415 0.304199ZM7.03807 2.31982C9.18063 2.31982 10.9179 4.19787 10.9179 6.51424C10.9179 8.83061 9.18063 10.7055 7.03807 10.7055C4.89228 10.7055 3.15507 8.83061 3.15507 6.51424C3.15507 4.19787 4.89228 2.31982 7.03807 2.31982ZM32.7424 0.304199C36.1429 0.304199 38.8999 3.06528 38.8999 6.46945C38.8999 9.87361 36.1429 12.6315 32.7424 12.6315C29.3452 12.6315 26.5882 9.87361 26.5882 6.46945C26.5882 3.06528 29.3452 0.304199 32.7424 0.304199ZM32.7264 2.31982C34.8689 2.31982 36.6061 4.19787 36.6061 6.51424C36.6061 8.83061 34.8689 10.7055 32.7264 10.7055C30.5806 10.7055 28.8433 8.83061 28.8433 6.51424C28.8433 4.19787 30.5806 2.31982 32.7264 2.31982Z" fill="#4C3494"/>
</svg>
