<svg width="14" height="14" viewBox="0 0 14 14" fill="none" xmlns="http://www.w3.org/2000/svg">
<path fill-rule="evenodd" clip-rule="evenodd" d="M6.12558 7.00029C6.12558 7.68229 5.57292 8.23496 4.89092 8.23496C4.20892 8.23496 3.65625 7.68229 3.65625 7.00029C3.65625 6.31829 4.20892 5.76562 4.89092 5.76562H4.89292C5.57425 5.76629 6.12558 6.31896 6.12558 7.00029Z" stroke="#4F5665" stroke-linecap="round" stroke-linejoin="round"/>
<path d="M6.12793 7H10.3399V8.23467" stroke="#4F5665" stroke-linecap="round" stroke-linejoin="round"/>
<path d="M8.45443 8.23467V7" stroke="#4F5665" stroke-linecap="round" stroke-linejoin="round"/>
<path fill-rule="evenodd" clip-rule="evenodd" d="M0.833008 7.00016C0.833008 2.3755 2.37501 0.833496 6.99967 0.833496C11.6243 0.833496 13.1663 2.3755 13.1663 7.00016C13.1663 11.6248 11.6243 13.1668 6.99967 13.1668C2.37501 13.1668 0.833008 11.6248 0.833008 7.00016Z" stroke="#4F5665" stroke-linecap="round" stroke-linejoin="round"/>
</svg>
