<svg width="16" height="16" viewBox="0 0 16 16" fill="none" xmlns="http://www.w3.org/2000/svg">
<path d="M11.3337 7.33341H12.0003C12.1771 7.33341 12.3467 7.26318 12.4717 7.13815C12.5968 7.01313 12.667 6.84356 12.667 6.66675V6.00008C12.667 5.82327 12.5968 5.6537 12.4717 5.52868C12.3467 5.40365 12.1771 5.33341 12.0003 5.33341H11.3337C11.1568 5.33341 10.9873 5.40365 10.8623 5.52868C10.7372 5.6537 10.667 5.82327 10.667 6.00008V6.66675C10.667 6.84356 10.7372 7.01313 10.8623 7.13815C10.9873 7.26318 11.1568 7.33341 11.3337 7.33341ZM4.00033 8.00008H7.33366C7.51047 8.00008 7.68004 7.92984 7.80506 7.80482C7.93009 7.67979 8.00033 7.51023 8.00033 7.33341C8.00033 7.1566 7.93009 6.98703 7.80506 6.86201C7.68004 6.73699 7.51047 6.66675 7.33366 6.66675H4.00033C3.82351 6.66675 3.65395 6.73699 3.52892 6.86201C3.4039 6.98703 3.33366 7.1566 3.33366 7.33341C3.33366 7.51023 3.4039 7.67979 3.52892 7.80482C3.65395 7.92984 3.82351 8.00008 4.00033 8.00008ZM14.667 2.66675H1.33366C1.15685 2.66675 0.987279 2.73699 0.862254 2.86201C0.73723 2.98703 0.666992 3.1566 0.666992 3.33341V12.6667C0.666992 12.8436 0.73723 13.0131 0.862254 13.1382C0.987279 13.2632 1.15685 13.3334 1.33366 13.3334H14.667C14.8438 13.3334 15.0134 13.2632 15.1384 13.1382C15.2634 13.0131 15.3337 12.8436 15.3337 12.6667V3.33341C15.3337 3.1566 15.2634 2.98703 15.1384 2.86201C15.0134 2.73699 14.8438 2.66675 14.667 2.66675V2.66675ZM14.0003 12.0001H2.00033V4.00008H14.0003V12.0001ZM4.00033 10.6667H7.33366C7.51047 10.6667 7.68004 10.5965 7.80506 10.4715C7.93009 10.3465 8.00033 10.1769 8.00033 10.0001C8.00033 9.82327 7.93009 9.6537 7.80506 9.52868C7.68004 9.40365 7.51047 9.33341 7.33366 9.33341H4.00033C3.82351 9.33341 3.65395 9.40365 3.52892 9.52868C3.4039 9.6537 3.33366 9.82327 3.33366 10.0001C3.33366 10.1769 3.4039 10.3465 3.52892 10.4715C3.65395 10.5965 3.82351 10.6667 4.00033 10.6667Z" fill="#4F5665"/>
</svg>
