<svg width="27" height="29" viewBox="0 0 27 29" fill="none" xmlns="http://www.w3.org/2000/svg">
<g clip-path="url(#clip0_0_1420)">
<path d="M22.5557 2.679C21.1406 1.20649 18.5824 0.575195 15.3098 0.575195H5.81165C5.48785 0.575206 5.17468 0.680663 4.92843 0.872605C4.68219 1.06455 4.51903 1.33038 4.46828 1.62232L0.513437 24.5199C0.434827 24.9714 0.81782 25.3803 1.31913 25.3803H7.18294L8.6556 16.8532L8.6099 17.1202C8.71481 16.5175 9.2795 16.0729 9.94818 16.0729H12.7347C18.2087 16.0729 22.4949 14.0432 23.747 8.17163C23.7841 7.99798 23.8163 7.82896 23.8442 7.66383C23.6861 7.58743 23.6861 7.58743 23.8442 7.66383C24.217 5.49365 23.8416 4.01641 22.5557 2.679Z" fill="#27346A"/>
<path d="M10.8993 6.88206C11.0596 6.81237 11.235 6.77626 11.4125 6.77636H18.8589C19.7406 6.77636 20.5631 6.82874 21.3147 6.93917C21.525 6.96978 21.7342 7.00633 21.942 7.04876C22.2366 7.1081 22.5277 7.18072 22.8144 7.26636C23.1839 7.37901 23.528 7.5102 23.8443 7.66383C24.217 5.49281 23.8416 4.01641 22.5557 2.679C21.1398 1.20649 18.5824 0.575195 15.3098 0.575195H5.81084C5.14205 0.575195 4.57309 1.01967 4.46828 1.62232L0.513437 24.5191C0.434828 24.9714 0.81782 25.3797 1.31832 25.3797H7.18295L10.2382 7.69239C10.2683 7.51854 10.3442 7.35395 10.4593 7.21279C10.5745 7.07164 10.7255 6.95814 10.8993 6.88206Z" fill="#27346A"/>
<path d="M23.747 8.17186C22.495 14.0426 18.2088 16.0731 12.7347 16.0731H9.94741C9.27873 16.0731 8.71394 16.5177 8.61004 17.1205L6.77795 27.7229C6.7095 28.1181 7.04425 28.4761 7.48219 28.4761H12.4252C12.7084 28.4761 12.9822 28.3838 13.1975 28.2159C13.4128 28.0479 13.5553 27.8154 13.5996 27.5601L13.6477 27.3302L14.5794 21.9401L14.6394 21.6422C14.6836 21.3869 14.8262 21.1544 15.0415 20.9865C15.2567 20.8186 15.5305 20.7262 15.8137 20.7262H16.5534C21.3418 20.7262 25.0912 18.9503 26.1869 13.8142C26.6442 11.6679 26.4075 9.87588 25.1977 8.61718C24.8308 8.23593 24.3751 7.92107 23.8442 7.66406C23.8155 7.83002 23.7843 7.99821 23.747 8.17186Z" fill="#2790C3"/>
<path d="M22.5349 7.18701C22.3397 7.13496 22.1426 7.08889 21.944 7.04886C21.7361 7.00712 21.5269 6.97083 21.3167 6.94001C20.5643 6.82885 19.7425 6.77637 18.8599 6.77637H11.4144C11.2367 6.776 11.0613 6.81243 10.9012 6.8829C10.7272 6.95875 10.576 7.07218 10.4608 7.21338C10.3456 7.35457 10.2698 7.51928 10.2401 7.69323L8.65752 16.8533L8.61182 17.1203C8.71592 16.5176 9.28061 16.073 9.94939 16.073H12.7367C18.2107 16.073 22.4968 14.0433 23.7489 8.17173C23.7862 7.99808 23.8174 7.8298 23.8462 7.66393C23.5291 7.51114 23.1859 7.37911 22.8163 7.2672C22.7231 7.23898 22.6293 7.21224 22.535 7.18701" fill="#1F264F"/>
</g>
<defs>
<clipPath id="clip0_0_1420">
<rect width="26" height="28" fill="white" transform="translate(0.5 0.5)"/>
</clipPath>
</defs>
</svg>
