<svg width="16" height="16" viewBox="0 0 16 16" fill="none" xmlns="http://www.w3.org/2000/svg">
<path d="M4.00033 12.9999C4.73669 12.9999 5.33366 12.403 5.33366 11.6666C5.33366 10.9302 4.73669 10.3333 4.00033 10.3333C3.26395 10.3333 2.66699 10.9302 2.66699 11.6666C2.66699 12.403 3.26395 12.9999 4.00033 12.9999Z" stroke="#4F5665" stroke-linejoin="round"/>
<path d="M11.6663 12.9999C12.4027 12.9999 12.9997 12.403 12.9997 11.6666C12.9997 10.9302 12.4027 10.3333 11.6663 10.3333C10.93 10.3333 10.333 10.9302 10.333 11.6666C10.333 12.403 10.93 12.9999 11.6663 12.9999Z" stroke="#4F5665" stroke-linejoin="round"/>
<path d="M2.66699 11.6667H0.666992V3.66675H10.3337V11.6667H5.33366" stroke="#4F5665" stroke-linecap="round" stroke-linejoin="round"/>
<path d="M10.333 11.6667V6H13.1901L15.333 8.83333V11.6667H13.2701" stroke="#4F5665" stroke-linecap="round" stroke-linejoin="round"/>
</svg>
