<svg width="16" height="16" viewBox="0 0 16 16" fill="none" xmlns="http://www.w3.org/2000/svg">
<path d="M4.66146 9.66806C4.57391 9.66804 4.48721 9.68526 4.40631 9.71876C4.32542 9.75225 4.25192 9.80136 4.19001 9.86327C4.1281 9.92518 4.07899 9.99868 4.0455 10.0796C4.012 10.1605 3.99477 10.2472 3.9948 10.3347V11.5229C3.13549 10.5511 2.66126 9.29861 2.66146 8.00139C2.66134 7.80533 2.67308 7.60945 2.69662 7.4148C2.70741 7.32776 2.70092 7.23945 2.67752 7.15492C2.65412 7.0704 2.61427 6.99132 2.56025 6.92222C2.50624 6.85312 2.43911 6.79536 2.36273 6.75225C2.28635 6.70914 2.20222 6.68152 2.11515 6.67099C2.02807 6.66045 1.93978 6.6672 1.85532 6.69085C1.77086 6.7145 1.6919 6.75458 1.62296 6.8088C1.55402 6.86302 1.49646 6.93032 1.45358 7.00682C1.41069 7.08333 1.38333 7.16755 1.37305 7.25465C1.34285 7.50242 1.32785 7.75179 1.32813 8.00139C1.32903 9.59216 1.90077 11.1298 2.93938 12.3347H1.9948C1.81798 12.3347 1.64842 12.405 1.52339 12.53C1.39837 12.655 1.32813 12.8246 1.32813 13.0014C1.32813 13.1782 1.39837 13.3478 1.52339 13.4728C1.64842 13.5978 1.81798 13.6681 1.9948 13.6681H4.66146C4.76573 13.6667 4.86817 13.6405 4.96026 13.5916C5.05235 13.5427 5.13142 13.4725 5.19088 13.3869C5.19866 13.3766 5.20858 13.369 5.21582 13.3582C5.22026 13.3516 5.22038 13.3437 5.22453 13.3369C5.2563 13.2833 5.28011 13.2253 5.2952 13.1647C5.30507 13.1307 5.31207 13.096 5.31615 13.0608C5.31806 13.0402 5.32815 13.0225 5.32815 13.0014V10.3347C5.32817 10.2472 5.31095 10.1605 5.27745 10.0796C5.24396 9.99869 5.19485 9.92518 5.13294 9.86327C5.07102 9.80136 4.99752 9.75225 4.91662 9.71875C4.83572 9.68526 4.74902 9.66803 4.66146 9.66806V9.66806ZM5.66146 4.00139H4.47315C5.44502 3.14213 6.69755 2.66791 7.9948 2.66806C8.19076 2.66759 8.38656 2.67933 8.58106 2.70322C8.66801 2.71378 8.75618 2.70711 8.84055 2.68359C8.92493 2.66007 9.00384 2.62016 9.07279 2.56614C9.14174 2.51213 9.19937 2.44506 9.2424 2.36877C9.28543 2.29248 9.31301 2.20846 9.32357 2.12151C9.33413 2.03456 9.32746 1.94638 9.30394 1.86201C9.28042 1.77764 9.24051 1.69873 9.1865 1.62978C9.13248 1.56083 9.06541 1.5032 8.98912 1.46017C8.91283 1.41714 8.82881 1.38956 8.74186 1.379C8.49397 1.34909 8.24449 1.33431 7.9948 1.33473C6.40404 1.33559 4.8664 1.90728 3.66146 2.94585V2.00139C3.66146 1.82458 3.59122 1.65501 3.4662 1.52999C3.34118 1.40496 3.17161 1.33473 2.9948 1.33473C2.81798 1.33473 2.64842 1.40496 2.52339 1.52999C2.39837 1.65501 2.32813 1.82458 2.32813 2.00139V4.66806C2.33232 4.71212 2.3411 4.75563 2.35434 4.79787L2.3545 4.79868C2.37068 4.88071 2.40265 4.95883 2.44861 5.02868L2.45622 5.03995C2.50027 5.10401 2.55548 5.15964 2.61922 5.20417C2.62651 5.20951 2.63013 5.21768 2.6377 5.22277C2.64722 5.22907 2.658 5.23107 2.66773 5.23685C2.70554 5.25959 2.7456 5.27836 2.78728 5.29285C2.8436 5.31244 2.90232 5.32429 2.96184 5.32808C2.97339 5.32869 2.98312 5.33475 2.9948 5.33475H5.66146C5.83827 5.33475 6.00784 5.26451 6.13287 5.13948C6.25789 5.01446 6.32813 4.84489 6.32813 4.66808C6.32813 4.49127 6.25789 4.3217 6.13287 4.19667C6.00784 4.07165 5.83827 4.00141 5.66146 4.00141V4.00139ZM13.6351 11.2041C13.6189 11.1221 13.5869 11.0439 13.5409 10.9741L13.5334 10.9629C13.4893 10.8988 13.4341 10.8431 13.3703 10.7986C13.363 10.7933 13.3594 10.7851 13.3519 10.78C13.3447 10.7752 13.3361 10.7751 13.3288 10.7706C13.2443 10.7236 13.1516 10.693 13.0557 10.6803C13.0346 10.6783 13.0164 10.668 12.9948 10.668H10.3281C10.1513 10.668 9.98175 10.7383 9.85672 10.8633C9.7317 10.9883 9.66146 11.1579 9.66146 11.3347C9.66146 11.5115 9.7317 11.6811 9.85672 11.8061C9.98175 11.9311 10.1513 12.0014 10.3281 12.0014H11.5164C10.5446 12.8606 9.29203 13.3348 7.9948 13.3347C7.79882 13.3349 7.60302 13.323 7.40853 13.2989C7.23293 13.2776 7.05604 13.3269 6.9168 13.436C6.77755 13.545 6.68734 13.705 6.66602 13.8806C6.64469 14.0562 6.694 14.2331 6.80309 14.3723C6.91218 14.5116 7.07212 14.6018 7.24772 14.6231C7.49562 14.653 7.7451 14.668 7.9948 14.668C9.58555 14.6672 11.1232 14.0955 12.3281 13.0569V14.0014C12.3281 14.1782 12.3984 14.3478 12.5234 14.4728C12.6484 14.5978 12.818 14.6681 12.9948 14.6681C13.1716 14.6681 13.3412 14.5978 13.4662 14.4728C13.5912 14.3478 13.6615 14.1782 13.6615 14.0014V11.3347C13.6573 11.2907 13.6485 11.2472 13.6353 11.2049L13.6351 11.2041ZM13.9948 3.66806C14.1716 3.66806 14.3412 3.59782 14.4662 3.4728C14.5912 3.34777 14.6615 3.1782 14.6615 3.00139C14.6615 2.82458 14.5912 2.65501 14.4662 2.52999C14.3412 2.40496 14.1716 2.33473 13.9948 2.33473H11.3281C11.2847 2.33891 11.2419 2.34755 11.2002 2.36053L11.1958 2.36142C11.1148 2.37762 11.0377 2.40919 10.9687 2.45444L10.9556 2.46327C10.8918 2.50725 10.8365 2.56229 10.7921 2.62579C10.7868 2.63299 10.7787 2.63653 10.7738 2.64397C10.769 2.65113 10.7688 2.6596 10.7644 2.66688C10.7168 2.75194 10.6859 2.84532 10.6735 2.94199C10.6716 2.96258 10.6615 2.98032 10.6615 3.00139V5.66806C10.6615 5.84487 10.7317 6.01444 10.8567 6.13946C10.9817 6.26449 11.1513 6.33473 11.3281 6.33473C11.5049 6.33473 11.6745 6.26449 11.7995 6.13946C11.9246 6.01444 11.9948 5.84487 11.9948 5.66806V4.47947C12.854 5.45145 13.3282 6.70404 13.3281 8.00136C13.3283 8.19742 13.3165 8.39331 13.293 8.58795C13.2718 8.76343 13.3212 8.94013 13.4302 9.07927C13.5392 9.21841 13.6989 9.30863 13.8744 9.33014C13.9014 9.33327 13.9285 9.33479 13.9557 9.33469C14.1185 9.33448 14.2756 9.27471 14.3973 9.16665C14.5191 9.05858 14.597 8.90971 14.6165 8.7481C14.6467 8.50035 14.6617 8.25098 14.6615 8.00139C14.6605 6.4106 14.0888 4.87297 13.0501 3.66806H13.9948Z" fill="#4F5665"/>
</svg>
